<?xml version="1.0" standalone="no"?>
<!DOCTYPE svg PUBLIC "-//W3C//DTD SVG 20010904//EN"
 "http://www.w3.org/TR/2001/REC-SVG-20010904/DTD/svg10.dtd">
<svg version="1.0" xmlns="http://www.w3.org/2000/svg"
 width="1280.000000pt" height="1280.000000pt" viewBox="0 0 1280.000000 1280.000000"
 preserveAspectRatio="xMidYMid meet">
<metadata>
Created by potrace 1.14, written by Peter Selinger 2001-2017
</metadata>
<g transform="translate(0.000000,1280.000000) scale(0.100000,-0.100000)"
fill="#000000" stroke="none">
<path d="M0 10349 c0 -4 7 -12 15 -19 8 -7 15 -18 15 -24 0 -7 12 -28 26 -47
14 -19 33 -50 42 -69 9 -19 19 -37 23 -40 4 -3 16 -21 26 -40 11 -19 71 -118
133 -220 63 -102 118 -195 124 -207 6 -13 14 -23 19 -23 4 0 7 -4 7 -8 0 -7
33 -64 148 -252 11 -19 26 -40 31 -47 6 -7 11 -15 11 -18 0 -3 57 -99 126
-213 116 -190 147 -241 178 -297 7 -11 28 -46 49 -77 20 -31 37 -62 37 -68 0
-5 5 -10 10 -10 6 0 10 -7 10 -15 0 -8 5 -15 10 -15 6 0 10 -6 11 -12 0 -7 27
-56 59 -108 32 -52 87 -142 121 -200 35 -58 66 -107 69 -110 4 -3 9 -12 13
-20 4 -8 17 -32 29 -52 87 -140 128 -211 128 -219 0 -5 5 -9 10 -9 6 0 10 -7
10 -15 0 -8 5 -15 10 -15 6 0 10 -4 10 -10 0 -5 21 -44 47 -87 27 -43 53 -86
58 -95 6 -10 64 -106 130 -214 66 -108 130 -213 142 -234 12 -21 44 -74 72
-119 28 -44 51 -85 51 -90 0 -5 3 -11 7 -13 7 -2 126 -193 183 -293 9 -16 61
-101 114 -188 53 -87 96 -162 96 -167 0 -6 5 -10 10 -10 6 0 10 -7 10 -15 0
-8 3 -15 8 -15 13 0 45 -78 39 -94 -4 -9 -3 -16 1 -16 4 0 6 -26 4 -57 -3 -69
-2 -164 1 -251 1 -34 -2 -63 -7 -65 -5 -2 -5 -11 1 -21 6 -11 7 -33 3 -52 -4
-19 -5 -34 -1 -34 3 0 5 -26 3 -57 -3 -69 -2 -164 1 -251 1 -34 -2 -63 -7 -65
-5 -2 -5 -11 1 -21 6 -11 7 -33 3 -52 -4 -19 -5 -34 -1 -34 3 0 5 -28 3 -62
-2 -35 -3 -71 -3 -80 0 -10 1 -46 1 -80 2 -72 1 -167 -1 -218 -1 -19 -1 -42 0
-50 3 -45 0 -173 -5 -181 -3 -5 -1 -9 3 -9 5 0 7 -15 6 -32 -3 -53 -4 -79 -2
-148 1 -75 0 -170 -2 -220 -1 -19 -1 -42 0 -50 3 -45 0 -173 -5 -181 -3 -5 -1
-9 3 -9 5 0 7 -15 6 -32 -3 -53 -4 -79 -2 -148 1 -75 0 -170 -2 -220 -1 -19
-1 -42 0 -50 3 -45 0 -173 -5 -181 -3 -5 -1 -9 3 -9 5 0 7 -15 6 -32 -3 -53
-4 -79 -2 -148 1 -75 0 -170 -2 -220 -1 -19 -1 -42 0 -50 3 -45 0 -173 -5
-181 -3 -5 -2 -9 3 -9 4 0 8 -36 8 -80 0 -44 -3 -80 -7 -80 -4 0 -5 -10 -2
-23 3 -12 6 -46 6 -74 0 -29 3 -53 7 -54 19 -3 1649 -4 1664 -1 16 4 17 117
17 2192 l0 2187 -120 198 c-66 109 -120 202 -120 206 0 5 -4 9 -10 9 -5 0 -10
4 -10 9 0 5 -23 46 -50 90 -28 44 -50 85 -50 90 0 5 -3 11 -8 13 -4 2 -50 74
-102 160 -52 87 -110 181 -128 210 -18 29 -37 62 -42 73 -6 11 -20 36 -33 56
-12 20 -69 114 -127 210 -58 96 -108 176 -112 177 -5 2 -8 8 -8 13 0 7 -148
256 -208 349 -9 14 -15 27 -15 30 1 3 -4 12 -11 20 -7 8 -30 44 -51 80 -21 36
-41 67 -44 70 -3 3 -13 19 -21 35 -8 17 -27 48 -41 70 -15 22 -36 56 -47 75
-11 19 -56 95 -101 169 -44 74 -81 138 -81 143 0 4 -4 8 -10 8 -5 0 -10 4 -10
10 0 8 -27 54 -88 150 -9 14 -15 28 -14 33 1 4 -2 7 -7 7 -5 0 -11 8 -15 18
-3 9 -14 29 -23 44 -17 25 -37 58 -136 223 -23 39 -55 89 -70 112 -15 24 -27
47 -27 53 0 5 -4 10 -10 10 -5 0 -10 4 -10 9 0 10 -215 369 -232 386 -10 11
-1978 15 -1978 4z"/>
<path d="M4168 10311 c14 -26 33 -57 42 -71 9 -14 20 -32 23 -40 4 -8 18 -33
31 -55 14 -22 42 -69 62 -105 21 -36 40 -67 44 -70 4 -3 10 -15 14 -27 4 -13
12 -23 17 -23 6 0 8 -4 4 -9 -3 -5 -1 -12 4 -15 8 -5 24 -31 87 -141 63 -111
99 -171 104 -175 3 -3 14 -21 23 -41 9 -20 23 -42 32 -49 8 -7 15 -16 15 -21
0 -7 145 -257 214 -369 12 -19 28 -46 36 -60 7 -14 60 -103 117 -199 57 -95
103 -177 103 -182 0 -5 3 -9 8 -9 4 0 25 -34 47 -75 22 -41 43 -75 47 -75 5 0
8 -4 8 -9 0 -5 28 -56 61 -113 34 -57 69 -116 79 -133 10 -16 45 -76 79 -133
33 -56 61 -106 61 -111 0 -5 4 -11 8 -13 6 -2 184 -296 252 -418 9 -15 34 -58
57 -96 22 -38 59 -100 82 -139 22 -38 44 -74 48 -80 4 -5 15 -23 23 -40 8 -16
17 -32 20 -35 7 -6 42 -65 102 -171 7 -13 15 -26 18 -29 3 -3 11 -16 18 -29
38 -66 56 -98 71 -123 61 -100 117 -195 120 -203 2 -5 17 -29 32 -52 16 -23
29 -45 29 -48 0 -4 14 -27 30 -52 17 -24 30 -46 30 -48 0 -2 31 -55 68 -117
38 -62 86 -144 108 -181 21 -38 44 -76 49 -85 6 -9 37 -62 69 -117 32 -55 83
-139 112 -188 30 -48 54 -89 54 -92 0 -3 17 -31 37 -62 20 -32 48 -78 61 -103
13 -25 37 -64 53 -88 16 -24 29 -47 29 -51 0 -5 7 -14 15 -21 9 -7 13 -15 11
-18 -3 -2 7 -23 22 -46 32 -49 39 -61 92 -149 22 -38 40 -73 40 -78 0 -5 4 -9
9 -9 5 0 11 -8 15 -17 3 -10 19 -40 36 -68 17 -27 34 -57 37 -65 4 -8 9 -17
13 -20 6 -5 26 -38 73 -120 11 -19 28 -48 38 -65 10 -16 30 -50 44 -75 14 -25
39 -65 55 -90 15 -25 29 -51 29 -57 1 -7 5 -13 10 -13 5 0 11 -8 14 -17 4 -10
18 -36 31 -58 14 -22 30 -49 35 -60 5 -11 21 -37 35 -58 14 -21 26 -39 26 -41
0 -2 18 -34 41 -71 22 -37 49 -82 59 -100 10 -18 24 -43 32 -56 7 -13 15 -26
18 -29 10 -10 41 -65 47 -82 3 -10 9 -18 14 -18 5 0 9 -4 9 -9 0 -6 25 -52 56
-103 30 -51 61 -102 67 -113 7 -11 27 -43 45 -72 17 -30 32 -55 32 -58 0 -7
64 -109 78 -123 6 -7 12 -22 12 -33 0 -10 4 -19 8 -19 5 0 15 -12 23 -27 7
-16 21 -39 30 -53 9 -14 65 -107 124 -208 82 -139 111 -180 120 -172 7 6 45
66 84 133 98 166 93 158 117 192 11 17 23 37 26 45 3 8 87 151 187 318 99 167
181 308 181 313 0 5 5 9 10 9 6 0 10 4 10 9 0 5 29 57 65 116 36 59 65 108 65
110 0 2 33 56 73 122 39 65 78 129 84 143 7 14 40 68 73 120 32 52 59 101 60
108 0 6 4 12 9 12 5 0 11 6 13 13 3 10 33 63 149 255 35 58 71 119 97 165 15
27 46 78 70 114 23 36 42 72 42 79 0 8 3 14 8 14 4 0 18 21 32 48 14 26 29 52
33 57 16 20 167 278 167 287 0 4 4 8 9 8 5 0 12 8 15 18 3 9 12 26 19 37 6 11
37 62 67 113 30 51 63 105 72 120 10 15 21 34 25 42 5 8 24 41 43 73 19 32 44
73 55 92 16 28 148 250 202 340 7 11 18 31 25 45 7 14 15 27 18 30 3 3 24 37
47 75 122 208 234 395 236 395 1 0 2 -1052 2 -2337 l0 -2337 835 -1 c459 0
842 1 851 3 14 3 16 357 15 4005 l-1 4002 -833 0 c-739 1 -834 -1 -846 -15 -7
-8 -68 -107 -134 -220 -67 -113 -126 -210 -132 -217 -5 -7 -10 -14 -10 -17 0
-10 -314 -531 -324 -538 -6 -4 -7 -8 -3 -8 4 0 -5 -19 -21 -42 -16 -24 -40
-63 -53 -88 -13 -25 -27 -47 -30 -50 -3 -3 -8 -9 -10 -15 -5 -12 -66 -114 -91
-153 -10 -15 -21 -34 -25 -42 -4 -8 -49 -84 -100 -169 -51 -85 -93 -158 -93
-162 0 -4 -6 -14 -14 -21 -7 -8 -23 -32 -35 -54 -36 -65 -74 -129 -80 -134 -3
-3 -15 -23 -26 -45 -11 -22 -22 -42 -25 -45 -13 -13 -80 -129 -80 -139 0 -6
-3 -11 -7 -11 -5 0 -21 -26 -38 -58 -16 -31 -33 -59 -36 -62 -10 -7 -48 -71
-61 -102 -7 -16 -16 -28 -20 -28 -4 0 -8 -4 -8 -8 0 -7 -208 -362 -227 -387
-17 -23 -45 -71 -50 -87 -3 -10 -9 -18 -14 -18 -5 0 -9 -5 -9 -11 0 -6 -25
-51 -55 -100 -30 -49 -55 -93 -55 -99 0 -5 -4 -10 -10 -10 -5 0 -10 -4 -10 -9
0 -5 -45 -84 -100 -175 -55 -91 -100 -170 -100 -175 0 -5 -3 -11 -8 -13 -8 -3
-152 -243 -152 -253 0 -3 -9 -15 -20 -27 -10 -12 -17 -25 -14 -30 3 -4 1 -8
-4 -8 -5 0 -14 -12 -21 -27 -7 -16 -27 -51 -44 -78 -18 -28 -38 -59 -45 -70
-6 -11 -15 -27 -19 -35 -3 -8 -16 -28 -27 -45 -12 -16 -21 -32 -22 -35 0 -8
-46 -80 -49 -80 -2 0 -21 30 -42 66 -21 36 -43 73 -48 82 -6 9 -37 62 -69 117
-32 55 -102 172 -155 260 -53 88 -102 173 -109 190 -7 16 -16 32 -20 35 -7 5
-25 33 -75 120 -11 19 -28 49 -38 65 -10 17 -28 48 -40 70 -12 22 -24 42 -28
45 -3 3 -17 25 -30 50 -13 25 -33 56 -43 69 -10 13 -18 29 -18 37 0 7 -3 14
-7 16 -5 2 -15 17 -24 33 -9 17 -74 127 -144 245 -70 118 -139 235 -153 260
-14 25 -38 64 -54 88 -16 23 -26 42 -23 42 3 0 1 6 -5 13 -12 14 -153 248
-190 317 -14 25 -29 49 -33 55 -6 8 -86 142 -337 569 -19 32 -42 70 -51 85
-15 24 -33 55 -71 122 -7 13 -15 26 -18 29 -5 5 -15 23 -48 80 -17 31 -34 60
-141 242 -47 79 -97 162 -113 185 -15 23 -28 44 -28 47 0 3 -27 50 -60 104
-33 55 -60 104 -60 110 0 6 -4 12 -8 14 -6 2 -94 147 -174 288 -11 19 -26 42
-32 51 -10 13 -117 15 -993 15 l-982 0 27 -45z"/>
</g>
</svg>
