<svg width="70" height="70" fill="none" xmlns="http://www.w3.org/2000/svg"><g clip-path="url(#clip0_216_1478)" fill="#D6AE7B" stroke="#D6AE7B" stroke-width=".5"><path d="M35 66.719a31.755 31.755 0 01-31.719-31.72 1.094 1.094 0 012.188 0 29.531 29.531 0 0057.84 8.44 1.094 1.094 0 012.096.623A31.909 31.909 0 0135 66.719zm30.625-30.625A1.093 1.093 0 0164.531 35a29.53 29.53 0 00-57.84-8.438 1.094 1.094 0 01-2.096-.624A31.719 31.719 0 0166.719 35a1.094 1.094 0 01-1.094 1.094z"/><path d="M1.094 39.375a1.094 1.094 0 01-.774-1.867l3.282-3.281a1.094 1.094 0 011.546 1.546l-3.281 3.281c-.205.206-.483.32-.773.321z"/><path d="M7.656 39.375c-.29 0-.568-.115-.773-.32l-3.281-3.282a1.094 1.094 0 011.546-1.546l3.282 3.281a1.093 1.093 0 01-.774 1.867zm57.969-3.281a1.093 1.093 0 01-.773-1.867l3.281-3.281a1.093 1.093 0 011.547 1.546l-3.282 3.281c-.205.205-.483.32-.773.32z"/><path d="M65.625 36.094c-.29 0-.568-.116-.773-.32l-3.282-3.282a1.093 1.093 0 011.547-1.546l3.281 3.28a1.094 1.094 0 01-.773 1.868zM43.75 30.625c-5.98 0-9.844-1.717-9.844-4.375s3.864-4.375 9.844-4.375c5.98 0 9.844 1.717 9.844 4.375s-3.864 4.375-9.844 4.375zm0-6.563c-5.344 0-7.656 1.449-7.656 2.188 0 .74 2.312 2.188 7.656 2.188 5.344 0 7.656-1.449 7.656-2.188 0-.74-2.312-2.188-7.656-2.188z"/><path d="M43.75 35c-5.98 0-9.844-1.717-9.844-4.375V26.25h2.188v4.375c0 .74 2.312 2.188 7.656 2.188 5.344 0 7.656-1.449 7.656-2.188V26.25h2.188v4.375c0 2.658-3.864 4.375-9.844 4.375z"/><path d="M43.75 39.375c-5.98 0-9.844-1.717-9.844-4.375v-4.375h2.188V35c0 .74 2.312 2.188 7.656 2.188 5.344 0 7.656-1.449 7.656-2.188v-4.375h2.188V35c0 2.658-3.864 4.375-9.844 4.375z"/><path d="M43.75 43.75c-5.98 0-9.844-1.717-9.844-4.375V35h2.188v4.375c0 .74 2.312 2.188 7.656 2.188 5.344 0 7.656-1.449 7.656-2.188V35h2.188v4.375c0 2.658-3.864 4.375-9.844 4.375z"/><path d="M43.75 48.125c-5.98 0-9.844-1.717-9.844-4.375v-4.375h2.188v4.375c0 .74 2.312 2.188 7.656 2.188 5.344 0 7.656-1.449 7.656-2.188v-4.375h2.188v4.375c0 2.658-3.864 4.375-9.844 4.375zm-17.5-8.75c-5.98 0-9.844-1.717-9.844-4.375s3.864-4.375 9.844-4.375c5.98 0 9.844 1.717 9.844 4.375s-3.864 4.375-9.844 4.375zm0-6.563c-5.344 0-7.656 1.449-7.656 2.188 0 .74 2.312 2.188 7.656 2.188 5.344 0 7.656-1.449 7.656-2.188 0-.74-2.312-2.188-7.656-2.188z"/><path d="M26.25 43.75c-5.98 0-9.844-1.717-9.844-4.375V35h2.188v4.375c0 .74 2.312 2.188 7.656 2.188 5.344 0 7.656-1.449 7.656-2.188V35h2.188v4.375c0 2.658-3.864 4.375-9.844 4.375z"/><path d="M26.25 48.125c-5.98 0-9.844-1.717-9.844-4.375v-4.375h2.188v4.375c0 .74 2.312 2.188 7.656 2.188 5.344 0 7.656-1.449 7.656-2.188v-4.375h2.188v4.375c0 2.658-3.864 4.375-9.844 4.375z"/></g><defs><clipPath id="clip0_216_1478"><path fill="#fff" d="M0 0h70v70H0z"/></clipPath></defs></svg>