<svg width="70" height="70" fill="none" xmlns="http://www.w3.org/2000/svg"><g clip-path="url(#clip0_216_1337)" fill="#D6AE7B" stroke="#D6AE7B" stroke-width=".5"><path d="M39.368 24.573a1.033 1.033 0 01-1.034-1.035v-3.163a3.336 3.336 0 00-3.33-3.332 3.334 3.334 0 00-3.33 3.332v3.163a1.034 1.034 0 11-2.07 0v-3.163a5.406 5.406 0 015.402-5.402 5.408 5.408 0 015.402 5.402v3.163a1.042 1.042 0 01-1.04 1.035zM25.524 13.93a1.034 1.034 0 110-2.07c4.2 0 7.306-1.592 8.521-4.372.228-.522.84-.76 1.365-.532.524.228.763.84.532 1.364-1.54 3.51-5.432 5.61-10.418 5.61z"/><path d="M44.466 13.931c-4.986 0-8.884-2.097-10.42-5.612a1.036 1.036 0 011.896-.832c1.218 2.777 4.324 4.372 8.524 4.372a1.033 1.033 0 011.035 1.035c0 .57-.462 1.037-1.035 1.037zm-9.465 30.084c-.144 0-.289-.03-.423-.092-.58-.26-14.253-6.474-14.253-14.585a1.034 1.034 0 112.07 0c0 5.417 8.716 10.665 12.599 12.496 2.231-1.078 12.61-6.422 12.61-12.496a1.034 1.034 0 112.069 0c0 8.11-13.67 14.324-14.254 14.585a.983.983 0 01-.418.092z"/><path d="M21.362 30.238a1.033 1.033 0 01-1.035-1.034V12.896a1.034 1.034 0 112.07 0v16.308a1.035 1.035 0 01-1.035 1.034zm27.279 0a1.033 1.033 0 01-1.035-1.034V12.896a1.034 1.034 0 112.07 0v16.308a1.033 1.033 0 01-1.035 1.034z"/><path d="M25.524 13.931h-4.162a1.034 1.034 0 110-2.07h4.162a1.034 1.034 0 110 2.07zm23.104 0h-4.162a1.034 1.034 0 110-2.07h4.162a1.034 1.034 0 110 2.07zm17.624 49.201H3.75A3.754 3.754 0 010 59.382V20.458a3.755 3.755 0 013.751-3.75h17.611a1.034 1.034 0 110 2.068H3.751c-.926 0-1.679.754-1.679 1.68v38.921a1.68 1.68 0 001.679 1.68h62.498a1.68 1.68 0 001.679-1.68v-38.92a1.68 1.68 0 00-1.679-1.678h-17.61a1.034 1.034 0 110-2.07h17.61A3.754 3.754 0 0170 20.463v38.922a3.753 3.753 0 01-3.748 3.748z"/><path d="M16.898 53.66a1.033 1.033 0 01-1.034-1.035v-3.621a1.034 1.034 0 112.07 0v3.621a1.032 1.032 0 01-1.036 1.035z"/><path d="M16.898 53.66c-.108 0-.216-.017-.32-.05l-3.443-1.12a1.037 1.037 0 01.641-1.97l3.444 1.119a1.037 1.037 0 01-.322 2.02z"/><path d="M14.768 56.59a1.035 1.035 0 01-.837-1.644l2.13-2.93a1.035 1.035 0 111.674 1.217l-2.13 2.93a1.034 1.034 0 01-.837.426z"/><path d="M19.026 56.59a1.036 1.036 0 01-.84-.427l-2.127-2.93a1.033 1.033 0 01.597-1.614 1.031 1.031 0 011.08.4l2.127 2.93a1.033 1.033 0 01-.837 1.64z"/><path d="M16.898 53.66a1.037 1.037 0 01-.32-2.021l3.445-1.119a1.037 1.037 0 01.641 1.97l-3.444 1.12a1.03 1.03 0 01-.322.05zm12.07 0a1.033 1.033 0 01-1.035-1.035v-3.621a1.034 1.034 0 112.07 0v3.621a1.037 1.037 0 01-.64.956c-.125.052-.26.079-.395.079z"/><path d="M28.968 53.66c-.109 0-.216-.017-.32-.05l-3.444-1.12a1.033 1.033 0 01-.664-1.305c.177-.543.76-.842 1.306-.665l3.444 1.119a1.033 1.033 0 01.287 1.822c-.177.129-.39.198-.61.199z"/><path d="M26.837 56.59A1.035 1.035 0 0126 54.945l2.128-2.93a1.035 1.035 0 111.674 1.218l-2.128 2.929a1.034 1.034 0 01-.837.426z"/><path d="M31.096 56.589a1.036 1.036 0 01-.84-.426l-2.128-2.93a1.034 1.034 0 111.674-1.214l2.128 2.93a1.034 1.034 0 01-.834 1.64z"/><path d="M28.968 53.66a1.037 1.037 0 01-.32-2.021l3.442-1.119a1.037 1.037 0 01.641 1.97l-3.441 1.12a1.03 1.03 0 01-.322.05zm12.067 0A1.033 1.033 0 0140 52.625v-3.621a1.034 1.034 0 112.07 0v3.621a1.033 1.033 0 01-1.035 1.035z"/><path d="M41.035 53.66a1 1 0 01-.32-.05l-3.444-1.12a1.037 1.037 0 01.642-1.97l3.444 1.119a1.037 1.037 0 01-.322 2.02z"/><path d="M38.904 56.59a1.035 1.035 0 01-.837-1.644l2.128-2.93a1.035 1.035 0 111.674 1.218l-2.128 2.929a1.031 1.031 0 01-.837.426z"/><path d="M43.163 56.59a1.036 1.036 0 01-.84-.427l-2.128-2.93a1.034 1.034 0 111.674-1.214l2.128 2.93a1.034 1.034 0 01-.834 1.64z"/><path d="M41.035 53.66a1.037 1.037 0 01-.32-2.021l3.444-1.119a1.037 1.037 0 01.642 1.97l-3.444 1.12a1.019 1.019 0 01-.322.05zm12.07 0a1.033 1.033 0 01-1.036-1.035v-3.621a1.034 1.034 0 112.07 0v3.621a1.032 1.032 0 01-1.035 1.035z"/><path d="M53.104 53.66c-.108 0-.216-.017-.32-.05l-3.443-1.12a1.037 1.037 0 01.641-1.97l3.444 1.119a1.037 1.037 0 01-.322 2.02z"/><path d="M50.974 56.59a1.035 1.035 0 01-.837-1.644l2.128-2.93a1.035 1.035 0 111.674 1.218l-2.128 2.929a1.034 1.034 0 01-.837.426z"/><path d="M55.232 56.59a1.036 1.036 0 01-.84-.427l-2.127-2.93a1.034 1.034 0 111.674-1.214l2.127 2.93a1.034 1.034 0 01-.834 1.64z"/><path d="M53.104 53.66a1.037 1.037 0 01-.32-2.021l3.442-1.119a1.037 1.037 0 01.642 1.97l-3.442 1.12a1.018 1.018 0 01-.322.05zM68.91 31.32H48.567a1.034 1.034 0 110-2.069h20.342a1.034 1.034 0 110 2.07zm-47.476 0H1.035a1.034 1.034 0 110-2.069h20.398a1.034 1.034 0 110 2.07zm19.143 3.224h-11.15a1.036 1.036 0 01-1.034-1.035v-9.97a1.037 1.037 0 011.035-1.034h11.149a1.034 1.034 0 011.034 1.035v9.97a1.032 1.032 0 01-1.034 1.034zm-10.114-2.072h9.076v-7.9h-9.076v7.9z"/><path d="M35.001 29.498a1.034 1.034 0 01-1.034-1.035v-1.767a1.034 1.034 0 112.069 0v1.767A1.033 1.033 0 0135 29.498z"/></g><defs><clipPath id="clip0_216_1337"><path fill="#fff" d="M0 0h70v70H0z"/></clipPath></defs></svg>