<svg width="80" height="80" fill="none" xmlns="http://www.w3.org/2000/svg"><g clip-path="url(#clip0_216_1412)" fill="#D6AE7B"><path d="M77.5 51.875a1.25 1.25 0 01-1.25-1.25v-6.25a1.25 1.25 0 012.5 0v6.25a1.25 1.25 0 01-1.25 1.25z"/><path d="M77.501 45.625a1.25 1.25 0 01-1.12-.691l-1.25-2.5a1.25 1.25 0 112.238-1.118l1.25 2.5a1.25 1.25 0 01-1.118 1.809z"/><path d="M76.249 43.125a1.25 1.25 0 01-1.118-1.809l1.25-2.5a1.25 1.25 0 012.238 1.118l-1.25 2.5a1.25 1.25 0 01-1.12.691z"/><path d="M77.501 40.625a1.252 1.252 0 01-1.212-1.552l1.25-5a1.25 1.25 0 012.424.605l-1.25 5a1.25 1.25 0 01-1.212.947z"/><path d="M78.751 35.625a1.25 1.25 0 01-1.12-.691l-1.25-2.5a1.25 1.25 0 112.238-1.118l1.25 2.5a1.25 1.25 0 01-1.118 1.809z"/><path d="M77.5 33.125a1.25 1.25 0 01-.884-2.134l1.25-1.25a1.25 1.25 0 111.768 1.768l-1.25 1.25a1.244 1.244 0 01-.884.366z"/><path d="M78.751 31.875a1.249 1.249 0 01-1.12-.691l-1.25-2.5a1.25 1.25 0 112.238-1.118l1.25 2.5a1.25 1.25 0 01-1.118 1.809z"/><path d="M72.499 30.625a1.25 1.25 0 01-.301-2.463l5-1.25a1.252 1.252 0 011.565 1.398 1.251 1.251 0 01-.96 1.027l-5 1.25a1.24 1.24 0 01-.304.038z"/><path d="M68.75 34.375a1.25 1.25 0 01-.884-2.134l3.75-3.75a1.25 1.25 0 111.768 1.768l-3.75 3.75a1.244 1.244 0 01-.884.366z"/><path d="M68.75 34.375c-.136 0-.272-.022-.401-.066l-3.69-1.25a1.25 1.25 0 01.803-2.368l3.69 1.25a1.25 1.25 0 01-.402 2.434z"/><path d="M55.001 38.125a1.25 1.25 0 01-.557-2.37l10.061-5a1.25 1.25 0 011.113 2.239l-10.062 5a1.243 1.243 0 01-.555.13zm-25 0a1.18 1.18 0 01-.206-.018l-7.5-1.25a1.248 1.248 0 01-.888-1.908 1.25 1.25 0 011.298-.557l7.5 1.25a1.25 1.25 0 01-.204 2.483z"/><path d="M22.499 36.875c-.194 0-.384-.045-.558-.131l-2.5-1.25a1.25 1.25 0 011.118-2.238l2.5 1.25a1.25 1.25 0 01-.56 2.369z"/><path d="M20 35.625a1.25 1.25 0 01-1.185-1.645l1.25-3.75a1.25 1.25 0 112.37.79l-1.25 3.75a1.25 1.25 0 01-1.185.855z"/><path d="M21.25 31.875a1.24 1.24 0 01-.859-.34l-2.5-2.359a1.25 1.25 0 011.717-1.818l2.5 2.357a1.25 1.25 0 01-.858 2.16z"/><path d="M12.5 35.625a1.25 1.25 0 01-.875-2.144l6.25-6.109a1.25 1.25 0 111.75 1.788l-6.25 6.109a1.244 1.244 0 01-.875.356z"/><path d="M7.501 38.125a1.25 1.25 0 01-.56-2.369l5-2.5a1.25 1.25 0 111.118 2.238l-5 2.5a1.251 1.251 0 01-.558.131z"/><path d="M6.251 43.125a1.25 1.25 0 01-1.212-1.553l1.25-5a1.25 1.25 0 112.424.605l-1.25 5a1.248 1.248 0 01-1.212.948z"/><path d="M7.499 48.125a1.249 1.249 0 01-1.212-.947l-1.25-5a1.25 1.25 0 112.425-.605l1.25 5A1.251 1.251 0 017.5 48.124z"/><path d="M3.75 49.375a1.25 1.25 0 01-.395-2.435l3.75-1.25a1.25 1.25 0 11.79 2.37l-3.75 1.25a1.23 1.23 0 01-.395.065z"/><path d="M3.749 49.375c-.194 0-.385-.045-.558-.131l-2.5-1.25a1.25 1.25 0 011.118-2.238l2.5 1.25a1.25 1.25 0 01-.56 2.369z"/><path d="M6.251 58.246a1.25 1.25 0 01-1.046-.564l-5-7.62a1.25 1.25 0 112.09-1.373l5 7.62a1.25 1.25 0 01-1.044 1.937z"/><path d="M1.25 50.625A1.25 1.25 0 010 49.375v-2.5a1.25 1.25 0 112.5 0v2.5a1.25 1.25 0 01-1.25 1.25zm5.201 7.5a1.25 1.25 0 01-.92-2.096l2.299-2.5a1.249 1.249 0 111.84 1.692l-2.299 2.5a1.246 1.246 0 01-.92.404z"/><path d="M8.751 55.625a1.25 1.25 0 01-.56-2.369l2.5-1.25a1.25 1.25 0 111.118 2.238l-2.5 1.25a1.251 1.251 0 01-.558.131z"/><path d="M11.251 54.375a1.25 1.25 0 01-1.12-.691l-1.25-2.5a1.25 1.25 0 112.238-1.118l1.25 2.5a1.25 1.25 0 01-1.119 1.809h.001z"/><path d="M15 51.875h-5a1.25 1.25 0 010-2.5h5a1.25 1.25 0 010 2.5z"/><path d="M18.75 55.625a1.247 1.247 0 01-.884-.366l-3.75-3.75a1.25 1.25 0 011.768-1.768l3.75 3.75a1.25 1.25 0 01-.884 2.134z"/><path d="M18.75 55.625a1.25 1.25 0 01-.884-2.134l2.5-2.5a1.25 1.25 0 011.768 1.768l-2.5 2.5a1.247 1.247 0 01-.884.366z"/><path d="M26.251 54.375a1.24 1.24 0 01-.303-.037l-5-1.25a1.25 1.25 0 01.604-2.425l5 1.25a1.25 1.25 0 01-.3 2.462z"/><path d="M27.501 56.875a1.25 1.25 0 01-1.12-.691l-1.25-2.5a1.25 1.25 0 112.238-1.118l1.25 2.5a1.25 1.25 0 01-1.118 1.809z"/><path d="M30 56.875h-2.5a1.25 1.25 0 010-2.5H30a1.25 1.25 0 010 2.5z"/><path d="M31.25 60.625a1.25 1.25 0 01-1.185-.855l-1.25-3.75a1.25 1.25 0 112.37-.79l1.25 3.75a1.25 1.25 0 01-1.185 1.645z"/><path d="M34.999 63.125a1.25 1.25 0 01-.693-.21l-3.75-2.5a1.25 1.25 0 111.388-2.08l3.75 2.5a1.25 1.25 0 01-.695 2.29z"/><path d="M35 63.125a1.25 1.25 0 01-.395-2.435l3.75-1.25a1.25 1.25 0 01.79 2.37l-3.75 1.25a1.23 1.23 0 01-.395.065z"/><path d="M41.249 63.125c-.194 0-.385-.045-.558-.131l-2.5-1.25a1.25 1.25 0 011.118-2.238l2.5 1.25a1.25 1.25 0 01-.56 2.369z"/><path d="M41.25 63.125a1.25 1.25 0 01-.884-2.134l1.25-1.25a1.25 1.25 0 011.768 1.768l-1.25 1.25a1.247 1.247 0 01-.884.366z"/><path d="M50 64.375c-.134 0-.268-.022-.395-.065l-7.5-2.5a1.25 1.25 0 11.79-2.37l7.5 2.5A1.25 1.25 0 0150 64.375z"/><path d="M50.001 64.375a1.25 1.25 0 01-.56-2.369l2.5-1.25a1.25 1.25 0 111.118 2.238l-2.5 1.25a1.251 1.251 0 01-.558.131z"/><path d="M55 63.125h-2.5a1.25 1.25 0 010-2.5H55a1.25 1.25 0 010 2.5z"/><path d="M55 63.125a1.25 1.25 0 01-1.185-1.645l1.25-3.75a1.25 1.25 0 112.37.79l-1.25 3.75a1.25 1.25 0 01-1.185.855z"/><path d="M58.75 59.375h-2.5a1.25 1.25 0 010-2.5h2.5a1.25 1.25 0 010 2.5z"/><path d="M61.25 61.875a1.247 1.247 0 01-.884-.366l-2.5-2.5a1.25 1.25 0 011.768-1.768l2.5 2.5a1.251 1.251 0 01-.884 2.134z"/><path d="M63.749 63.125c-.194 0-.385-.045-.558-.131l-2.5-1.25a1.25 1.25 0 011.118-2.238l2.5 1.25a1.25 1.25 0 01-.56 2.369z"/><path d="M63.751 63.125a1.25 1.25 0 01-.56-2.369l2.5-1.25a1.25 1.25 0 111.118 2.238l-2.5 1.25a1.251 1.251 0 01-.558.131z"/><path d="M66.25 64.375a1.25 1.25 0 01-1.25-1.25v-2.5a1.25 1.25 0 012.5 0v2.5a1.25 1.25 0 01-1.25 1.25z"/><path d="M64.999 66.936a1.25 1.25 0 01-1.123-1.799l1.25-2.56a1.25 1.25 0 112.246 1.097l-1.25 2.56a1.248 1.248 0 01-1.123.702z"/><path d="M69.999 69.375a1.24 1.24 0 01-.548-.127l-5-2.438a1.25 1.25 0 011.098-2.247l5 2.44a1.25 1.25 0 01-.55 2.372z"/><path d="M70 69.295a1.25 1.25 0 01-1.25-1.25v-9.92a1.25 1.25 0 012.5 0v9.92a1.25 1.25 0 01-1.25 1.25z"/><path d="M70.001 59.375a1.25 1.25 0 01-1.12-.691l-2.5-5a1.25 1.25 0 112.238-1.118l2.5 5A1.25 1.25 0 0170 59.375z"/><path d="M67.5 54.375H65a1.25 1.25 0 010-2.5h2.5a1.25 1.25 0 010 2.5z"/><path d="M65.001 54.375a1.252 1.252 0 01-1.212-1.552l1.25-5a1.25 1.25 0 012.424.605l-1.25 5a1.25 1.25 0 01-1.212.947z"/><path d="M66.251 49.375a1.25 1.25 0 01-.56-2.369l5-2.5a1.25 1.25 0 111.118 2.238l-5 2.5a1.251 1.251 0 01-.558.131z"/><path d="M71.25 46.875a1.25 1.25 0 01-1.185-1.645l1.25-3.75a1.25 1.25 0 112.37.79l-1.25 3.75a1.25 1.25 0 01-1.185.855zm6.25 5a1.247 1.247 0 01-.884-.366l-3.75-3.75a1.25 1.25 0 011.768-1.768l3.75 3.75a1.251 1.251 0 01-.884 2.134z"/><path d="M73.749 48.125a1.248 1.248 0 01-1.212-.947l-1.25-5a1.25 1.25 0 012.425-.605l1.25 5a1.252 1.252 0 01-1.213 1.552zM42.5 54.375a1.25 1.25 0 01-.8-.289c-.633-.526-15.45-13.038-15.45-27.211a16.25 16.25 0 1132.5 0c0 14.172-14.819 26.685-15.45 27.211a1.25 1.25 0 01-.8.289zm0-41.25a13.765 13.765 0 00-13.75 13.75c0 11.218 10.7 21.795 13.75 24.58 3.047-2.788 13.75-13.379 13.75-24.58a13.765 13.765 0 00-13.75-13.75z"/><path d="M42.5 35.625a8.75 8.75 0 118.75-8.75 8.76 8.76 0 01-8.75 8.75zm0-15a6.25 6.25 0 106.25 6.25 6.257 6.257 0 00-6.25-6.25z"/></g><defs><clipPath id="clip0_216_1412"><path fill="#fff" d="M0 0h80v80H0z"/></clipPath></defs></svg>