<svg width="48" height="48" fill="none" xmlns="http://www.w3.org/2000/svg"><path d="M3.374 3.374C0 6.748 0 12.179 0 23.04v1.92c0 10.861 0 16.292 3.374 19.666C6.748 48 12.179 48 23.04 48h1.92c10.861 0 16.292 0 19.666-3.374C48 41.252 48 35.821 48 24.96v-1.92c0-10.861 0-16.292-3.374-19.666C41.252 0 35.821 0 24.96 0h-1.92C12.179 0 6.748 0 3.374 3.374z" fill="#229ED9"/><path d="M36.914 13.366l-4.527 22.065c-.342 1.556-1.232 1.944-2.497 1.211l-6.9-5.253-3.327 3.308c-.369.381-.677.7-1.387.7l.496-7.26 12.785-11.94c.556-.51-.121-.795-.864-.283L14.888 26.2l-6.804-2.202c-1.48-.477-1.507-1.53.308-2.263l26.614-10.597c1.232-.477 2.31.283 1.908 2.228z" fill="#fff"/></svg>