<svg width="48" height="48" fill="none" xmlns="http://www.w3.org/2000/svg"><g clip-path="url(#clip0_213_1295)"><path d="M36.75 0h-25.5C5.037 0 0 5.037 0 11.25v25.5C0 42.963 5.037 48 11.25 48h25.5C42.963 48 48 42.963 48 36.75v-25.5C48 5.037 42.963 0 36.75 0z" fill="url(#paint0_radial_213_1295)"/><path d="M36.75 0h-25.5C5.037 0 0 5.037 0 11.25v25.5C0 42.963 5.037 48 11.25 48h25.5C42.963 48 48 42.963 48 36.75v-25.5C48 5.037 42.963 0 36.75 0z" fill="url(#paint1_radial_213_1295)"/><path d="M24.002 5.25c-5.092 0-5.732.022-7.732.113-1.996.092-3.358.408-4.55.871a9.18 9.18 0 00-3.322 2.162 9.203 9.203 0 00-2.164 3.322c-.465 1.192-.781 2.555-.871 4.55-.09 2-.113 2.64-.113 7.732 0 5.093.022 5.73.113 7.73.092 1.996.408 3.358.871 4.55a9.186 9.186 0 002.163 3.322 9.182 9.182 0 003.32 2.164c1.193.464 2.556.78 4.552.871 2 .091 2.639.113 7.73.113 5.093 0 5.73-.022 7.73-.113 1.996-.091 3.36-.407 4.553-.871a9.173 9.173 0 003.32-2.164 9.203 9.203 0 002.164-3.321c.46-1.193.777-2.556.87-4.551.09-2 .114-2.637.114-7.73 0-5.092-.023-5.731-.113-7.731-.094-1.996-.41-3.359-.871-4.55a9.202 9.202 0 00-2.164-3.323 9.16 9.16 0 00-3.32-2.161c-1.196-.464-2.56-.78-4.555-.872-2-.09-2.637-.113-7.731-.113h.006zM22.32 8.629h1.682c5.006 0 5.6.018 7.576.108 1.829.083 2.82.389 3.482.646.875.34 1.499.746 2.154 1.402a5.819 5.819 0 011.404 2.156c.256.66.562 1.652.645 3.48.09 1.977.11 2.57.11 7.575 0 5.004-.02 5.598-.11 7.574-.083 1.828-.389 2.82-.645 3.48a5.796 5.796 0 01-1.404 2.155 5.8 5.8 0 01-2.154 1.402c-.66.258-1.654.563-3.482.646-1.976.09-2.57.11-7.576.11-5.007 0-5.6-.02-7.577-.11-1.828-.084-2.82-.39-3.482-.646a5.808 5.808 0 01-2.156-1.403 5.811 5.811 0 01-1.403-2.155c-.257-.66-.563-1.652-.646-3.48-.09-1.977-.108-2.57-.108-7.578 0-5.007.018-5.597.108-7.574.084-1.828.39-2.82.646-3.481.34-.875.747-1.5 1.403-2.157a5.815 5.815 0 012.156-1.403c.661-.258 1.654-.562 3.482-.646 1.73-.078 2.4-.102 5.895-.106v.005zm11.69 3.113a2.25 2.25 0 100 4.502 2.25 2.25 0 000-4.503v.001zm-10.008 2.63c-5.318 0-9.63 4.31-9.63 9.628 0 5.318 4.312 9.627 9.63 9.627A9.626 9.626 0 0033.629 24c0-5.317-4.31-9.629-9.628-9.629zm0 3.378a6.25 6.25 0 110 12.5 6.25 6.25 0 010-12.5z" fill="#fff"/></g><defs><radialGradient id="paint0_radial_213_1295" cx="0" cy="0" r="1" gradientUnits="userSpaceOnUse" gradientTransform="matrix(0 -47.5716 44.2453 0 12.75 51.697)"><stop stop-color="#FD5"/><stop offset=".1" stop-color="#FD5"/><stop offset=".5" stop-color="#FF543E"/><stop offset="1" stop-color="#C837AB"/></radialGradient><radialGradient id="paint1_radial_213_1295" cx="0" cy="0" r="1" gradientUnits="userSpaceOnUse" gradientTransform="rotate(78.681 -6.13 -3.176) scale(21.2648 87.654)"><stop stop-color="#3771C8"/><stop offset=".128" stop-color="#3771C8"/><stop offset="1" stop-color="#60F" stop-opacity="0"/></radialGradient><clipPath id="clip0_213_1295"><path fill="#fff" d="M0 0h48v48H0z"/></clipPath></defs></svg>