<svg width="48" height="48" fill="none" xmlns="http://www.w3.org/2000/svg"><path d="M3.374 3.374C0 6.748 0 12.179 0 23.04v1.92c0 10.861 0 16.292 3.374 19.666C6.748 48 12.179 48 23.04 48h1.92c10.861 0 16.292 0 19.666-3.374C48 41.252 48 35.821 48 24.96v-1.92c0-10.861 0-16.292-3.374-19.666C41.252 0 35.821 0 24.96 0h-1.92C12.179 0 6.748 0 3.374 3.374z" fill="#fff"/><path d="M3.374 3.374C0 6.748 0 12.179 0 23.04v1.92c0 10.861 0 16.292 3.374 19.666C6.748 48 12.179 48 23.04 48h1.92c10.861 0 16.292 0 19.666-3.374C48 41.252 48 35.821 48 24.96v-1.92c0-10.861 0-16.292-3.374-19.666C41.252 0 35.821 0 24.96 0h-1.92C12.179 0 6.748 0 3.374 3.374zM8.1 14.6h5.48c.18 9.16 4.22 13.04 7.42 13.84V14.6h5.16v7.9c3.16-.34 6.48-3.94 7.6-7.9h5.16a15.243 15.243 0 01-7.02 9.96 15.788 15.788 0 018.22 10.02h-5.68a9.874 9.874 0 00-8.28-7.14v7.14h-.62c-10.94 0-17.18-7.5-17.44-19.98" fill="#07F"/></svg>