<svg xmlns="http://www.w3.org/2000/svg" width="146" height="83" fill="none"><path d="M47.286 22.56v21.567h9.47V19.983L44.426 0h-11.1l13.96 22.56z" fill="url(#paint0_linear_213_1185)"/><path d="M95.869 0L81.706 23.264 67.662 0H56.617l25.05 41.45L95.71 18.32v25.806h9.557V0h-9.399z" fill="url(#paint1_linear_213_1185)"/><path d="M4.232 60.514l6.142 9.704 6.333-9.704h4.296v.157l-8.847 12.813v9.014H8.592v-9.014L0 60.671v-.157h4.232zM40.56 79.043v3.454H24.107V60.514h16.357v3.423H27.672v5.936h12.283v3.266H27.672v5.904H40.56zm20.593-15.451l-2.705 1.79c-.53-.754-1.294-1.34-2.29-1.759-.977-.44-2.048-.67-3.215-.69-1.527 0-2.769.303-3.723.91-.955.586-1.432 1.392-1.432 2.418 0 .963.456 1.665 1.368 2.104.934.44 2.28.785 4.042 1.037 1.315.188 2.44.408 3.373.66a12.43 12.43 0 012.768 1.13c.913.481 1.602 1.151 2.069 2.01.488.837.732 1.842.732 3.015 0 1.57-.467 2.878-1.4 3.925a7.499 7.499 0 01-3.374 2.23c-1.315.419-2.8.628-4.455.628-4.561 0-7.754-1.665-9.578-4.993l2.673-1.759c1.442 2.408 3.755 3.611 6.937 3.611.976 0 1.867-.104 2.673-.313a4.498 4.498 0 002.069-1.163c.594-.586.89-1.308.89-2.166 0-1.11-.509-1.927-1.527-2.45-.997-.544-2.387-.932-4.169-1.162a27.45 27.45 0 01-2.64-.44 16.83 16.83 0 01-2.292-.722c-.806-.314-1.464-.69-1.973-1.13-.488-.44-.902-1.005-1.241-1.696-.319-.712-.478-1.518-.478-2.419 0-1.088.255-2.051.764-2.889a5.556 5.556 0 012.037-1.978c.848-.482 1.76-.838 2.737-1.068a12.208 12.208 0 013.055-.377c3.967 0 6.735 1.235 8.305 3.706zM93.46 82.529V65.665l-7.575 10.394h-.763l-7.479-10.394v16.864H74.08V60.546h4.137l7.351 10.3 7.32-10.3h4.136v21.983H93.46zm26.745-.031l-2.132-4.617h-12.061l-2.1 4.617h-3.787l9.992-21.984H114l9.992 21.983h-3.787zm-3.437-7.82l-4.71-10.458-4.709 10.458h9.419zm13.034-14.164l12.634 15.64v-15.64H146v21.983h-2.705l-12.634-15.513v15.514h-3.596V60.514h2.737z" fill="#fff"/><defs><linearGradient id="paint0_linear_213_1185" x1="0" y1="41.5" x2="146" y2="41.5" gradientUnits="userSpaceOnUse"><stop stop-color="#EACDA3"/><stop offset="1" stop-color="#D6AE7B"/></linearGradient><linearGradient id="paint1_linear_213_1185" x1="0" y1="41.5" x2="146" y2="41.5" gradientUnits="userSpaceOnUse"><stop stop-color="#EACDA3"/><stop offset="1" stop-color="#D6AE7B"/></linearGradient></defs></svg>