<svg xmlns="http://www.w3.org/2000/svg" width="124" height="70" fill="none"><path d="M40.16 19.027v18.188h8.044V16.853L37.73 0h-9.427L40.16 19.027z" fill="url(#paint0_linear_250_573)"/><path d="M81.423 0L69.394 19.62 57.466 0h-9.38L69.36 34.958l11.928-19.506v21.763h8.118V0h-7.983z" fill="url(#paint1_linear_250_573)"/><path d="M3.595 51.036L8.81 59.22l5.379-8.184h3.648v.133l-7.513 10.806v7.601H7.297v-7.601L0 51.169v-.133h3.595zm30.853 15.627v2.913H20.475v-18.54h13.892v2.887H23.502v5.006h10.433v2.754H23.502v4.98h10.946zm17.49-13.031l-2.297 1.51c-.45-.636-1.099-1.13-1.946-1.484-.829-.37-1.739-.565-2.73-.583-1.297 0-2.351.256-3.162.769-.81.494-1.216 1.174-1.216 2.039 0 .812.387 1.404 1.162 1.774.793.371 1.937.663 3.432.875 1.118.159 2.073.344 2.866.556a10.6 10.6 0 012.35.953c.776.406 1.361.971 1.758 1.695.414.707.621 1.554.621 2.543 0 1.324-.396 2.428-1.189 3.31a6.373 6.373 0 01-2.865 1.881c-1.117.353-2.378.53-3.784.53-3.874 0-6.585-1.404-8.135-4.211l2.27-1.484c1.225 2.031 3.19 3.046 5.892 3.046.83 0 1.586-.088 2.27-.264a3.827 3.827 0 001.757-.98c.505-.495.757-1.104.757-1.828 0-.936-.432-1.624-1.297-2.066-.847-.459-2.027-.786-3.54-.98a23.447 23.447 0 01-2.244-.37 14.366 14.366 0 01-1.946-.61c-.685-.265-1.243-.583-1.676-.953-.414-.371-.765-.848-1.054-1.43-.27-.6-.405-1.28-.405-2.04 0-.918.216-1.73.648-2.437a4.705 4.705 0 011.73-1.668 8.795 8.795 0 012.325-.9 10.435 10.435 0 012.594-.319c3.37 0 5.721 1.042 7.054 3.126zm27.438 15.971V55.38l-6.432 8.767h-.649l-6.351-8.767v14.223h-3.028v-18.54h3.514l6.243 8.687 6.217-8.688h3.513v18.54h-3.027zm22.716-.027l-1.811-3.893H90.038l-1.784 3.893h-3.216l8.486-18.54h3.298l8.486 18.54h-3.216zm-2.919-6.595l-4-8.82-4 8.82h8zm11.07-11.945l10.73 13.19v-13.19H124v18.54h-2.297l-10.73-13.084v13.084h-3.054v-18.54h2.324z" fill="#171717"/><defs><linearGradient id="paint0_linear_250_573" x1="0" y1="35" x2="124" y2="35" gradientUnits="userSpaceOnUse"><stop stop-color="#EACDA3"/><stop offset="1" stop-color="#D6AE7B"/></linearGradient><linearGradient id="paint1_linear_250_573" x1="0" y1="35" x2="124" y2="35" gradientUnits="userSpaceOnUse"><stop stop-color="#EACDA3"/><stop offset="1" stop-color="#D6AE7B"/></linearGradient></defs></svg>