<svg xmlns="http://www.w3.org/2000/svg" width="250" height="58" fill="none"><path d="M12.355 29.477V48.95h8.382v-21.8L9.823 9.106H0l12.355 20.371zM55.353 9.106L42.818 30.112 30.388 9.106h-9.775l22.17 37.427 12.43-20.884V48.95h8.459V9.106h-8.319zm39.134 7.363l6.737 11.152 6.947-11.152h4.712v.18l-9.704 14.725v10.358h-3.91V31.374L89.844 16.65v-.18h4.643zm39.849 21.293v3.97h-18.047V16.47h17.942v3.934h-14.033v6.82h13.475v3.754h-13.475v6.785h14.138zm22.591-17.756l-2.968 2.057c-.581-.866-1.419-1.54-2.513-2.021-1.071-.505-2.246-.77-3.526-.794-1.675 0-3.037.349-4.084 1.046-1.047.674-1.571 1.6-1.571 2.78 0 1.106.5 1.912 1.501 2.417 1.024.506 2.502.903 4.433 1.191 1.443.217 2.677.47 3.701.758 1.024.29 2.036.722 3.037 1.3a5.485 5.485 0 012.269 2.31c.535.962.803 2.117.803 3.464 0 1.805-.512 3.308-1.536 4.511a8.208 8.208 0 01-3.701 2.563c-1.442.481-3.072.722-4.887.722-5.003 0-8.506-1.913-10.507-5.739l2.932-2.02c1.583 2.766 4.119 4.15 7.61 4.15 1.071 0 2.048-.12 2.932-.361a4.884 4.884 0 002.27-1.336c.651-.673.977-1.503.977-2.49 0-1.275-.559-2.214-1.676-2.815-1.093-.626-2.618-1.07-4.573-1.335a28.846 28.846 0 01-2.897-.506 17.855 17.855 0 01-2.513-.83c-.885-.36-1.606-.794-2.165-1.299-.535-.505-.989-1.155-1.361-1.949-.349-.818-.524-1.744-.524-2.779 0-1.25.279-2.358.838-3.32a6.239 6.239 0 012.234-2.274 11.018 11.018 0 013.002-1.227 12.816 12.816 0 013.351-.433c4.352 0 7.389 1.42 9.112 4.259zm35.438 21.762v-19.38l-8.308 11.946h-.838l-8.204-11.946v19.38h-3.909V16.505h4.538l8.064 11.838 8.029-11.838h4.538v25.263h-3.91zm29.339-.036l-2.339-5.305h-13.23l-2.304 5.305h-4.154l10.961-25.263h4.259l10.961 25.263h-4.154zm-3.77-8.986l-5.167-12.019-5.166 12.019h10.333zm14.298-16.277l13.858 17.973V16.469H250v25.263h-2.967l-13.859-17.828v17.828h-3.944V16.47h3.002z" fill="#fff"/><path stroke="#fff" d="M79.406.122v57.813"/></svg>