<svg width="157" height="37" fill="none" xmlns="http://www.w3.org/2000/svg"><path d="M7.759 18.435v12.229h5.264v-13.69L6.169 5.641H0l7.759 12.793z" fill="#fff"/><path d="M7.759 18.435v12.229h5.264v-13.69L6.169 5.641H0l7.759 12.793z" fill="url(#paint0_linear_248_3330)"/><path d="M34.762 5.642L26.89 18.834 19.084 5.642h-6.139l13.923 23.504 7.806-13.115v14.633h5.312V5.642h-5.224z" fill="#fff"/><path d="M34.762 5.642L26.89 18.834 19.084 5.642h-6.139l13.923 23.504 7.806-13.115v14.633h5.312V5.642h-5.224z" fill="url(#paint1_linear_248_3330)"/><path d="M59.338 10.266l4.23 7.003 4.363-7.003h2.96v.113l-6.095 9.247v6.505h-2.455v-6.505l-5.92-9.247v-.113h2.917zm25.025 13.372v2.493H73.03V10.266h11.268v2.47h-8.813v4.284h8.463v2.357h-8.463v4.261h8.88zM98.55 12.487l-1.864 1.292c-.365-.544-.891-.967-1.578-1.27a5.363 5.363 0 00-2.214-.498c-1.052 0-1.907.22-2.565.657-.658.423-.987 1.005-.987 1.745 0 .695.315 1.202.943 1.519.643.317 1.571.567 2.784.748.906.136 1.681.295 2.324.476a8.348 8.348 0 011.907.816 3.442 3.442 0 011.425 1.45c.336.605.505 1.33.505 2.176 0 1.133-.322 2.078-.965 2.833a5.158 5.158 0 01-2.324 1.61c-.906.302-1.93.453-3.07.453-3.141 0-5.34-1.201-6.598-3.604l1.842-1.27c.994 1.738 2.587 2.607 4.779 2.607.672 0 1.286-.075 1.841-.226a3.065 3.065 0 001.425-.839c.41-.423.614-.944.614-1.564 0-.8-.35-1.39-1.052-1.768-.687-.392-1.644-.672-2.872-.838a18.109 18.109 0 01-1.82-.318 11.21 11.21 0 01-1.578-.52c-.555-.227-1.008-.5-1.36-.817-.335-.317-.62-.725-.854-1.224-.22-.513-.329-1.095-.329-1.745 0-.786.175-1.48.526-2.085.35-.604.819-1.08 1.403-1.428a6.918 6.918 0 011.886-.77 8.047 8.047 0 012.104-.273c2.733 0 4.64.892 5.722 2.675zm22.255 13.667V13.983l-5.217 7.502h-.527l-5.151-7.502v12.17h-2.456V10.29h2.85l5.064 7.434 5.043-7.434h2.849v15.865h-2.455zm18.425-.023l-1.469-3.332h-8.308l-1.447 3.332h-2.609l6.884-15.865h2.674l6.884 15.865h-2.609zm-2.368-5.643l-3.244-7.548-3.245 7.548h6.489zm8.979-10.222l8.704 11.287V10.266H157V26.13h-1.863l-8.704-11.196V26.13h-2.477V10.266h1.885z" fill="#D6AE7B"/><path stroke="url(#paint2_linear_248_3330)" d="M50.053 0v36.306"/><defs><linearGradient id="paint0_linear_248_3330" x1="0" y1="18.153" x2="39.986" y2="18.153" gradientUnits="userSpaceOnUse"><stop stop-color="#EACDA3"/><stop offset="1" stop-color="#D6AE7B"/></linearGradient><linearGradient id="paint1_linear_248_3330" x1="0" y1="18.153" x2="39.986" y2="18.153" gradientUnits="userSpaceOnUse"><stop stop-color="#EACDA3"/><stop offset="1" stop-color="#D6AE7B"/></linearGradient><linearGradient id="paint2_linear_248_3330" x1="49.053" y1="0" x2="49.053" y2="36.306" gradientUnits="userSpaceOnUse"><stop offset="1" stop-color="#D6AE7B"/></linearGradient></defs></svg>