<?xml version="1.0" encoding="utf-8"?><svg viewBox="0 0 42 42" xmlns="http://www.w3.org/2000/svg" xmlns:xlink="http://www.w3.org/1999/xlink"><style>:root>svg{display:none}:root>svg:target{display:block}</style><svg fill="none" viewBox="0 0 16 26" id="icon-arrow-bottom" xmlns="http://www.w3.org/2000/svg"><path fill-rule="evenodd" clip-rule="evenodd" d="M8.919 0v22.232l5.78-6.195L16 17.43 8 26l-8-8.57 1.3-1.393 5.781 6.195V0H8.92z" fill="currentColor"/></svg><svg fill="none" viewBox="0 0 26 11" id="icon-arrow-next" xmlns="http://www.w3.org/2000/svg"><path fill-rule="evenodd" clip-rule="evenodd" d="M0 4.868h23.391L19.102.894 20.067 0 26 5.5 20.067 11l-.965-.894 4.29-3.974H0V4.868z" fill="currentColor"/></svg><svg fill="none" viewBox="0 0 24 26" id="icon-basket" xmlns="http://www.w3.org/2000/svg"><path d="M7.368 6.854V5.683a4.71 4.71 0 011.357-3.311A4.606 4.606 0 0112 1c1.228 0 2.406.493 3.275 1.372a4.71 4.71 0 011.357 3.31v1.172M23 25V7.439H1V25h22z" stroke="currentColor"/></svg><svg fill="none" viewBox="0 0 12 6" id="icon-caret" xmlns="http://www.w3.org/2000/svg"><path d="M12 .836L11.028 0 6 4.322.972 0 0 .836 6 6l6-5.164z" fill="currentColor"/></svg><svg fill="none" viewBox="0 0 32 32" id="icon-close" xmlns="http://www.w3.org/2000/svg"><path d="M1 30.125L30.85 1m-29.7.874L31 31" stroke="currentColor"/></svg><svg fill="none" viewBox="0 0 30 20" id="icon-filter" xmlns="http://www.w3.org/2000/svg"><path stroke="#fff" d="M30 4.5H0M30 15.5H0"/><circle cx="10.5" cy="4.5" r="4" fill="#D6AE7B" stroke="#fff"/><circle cx="19.5" cy="15.5" r="4" fill="#D6AE7B" stroke="#fff"/></svg><svg fill="none" viewBox="0 0 10 2" id="icon-minus" xmlns="http://www.w3.org/2000/svg"><path d="M5.63.384H10v1.232H0V.384H5.629z" fill="currentColor"/></svg><svg fill="none" viewBox="0 0 16 16" id="icon-plus" xmlns="http://www.w3.org/2000/svg"><path d="M9.007 7.014H16v1.972H9.007V16H7.03V8.986H0V7.014h7.03V0h1.977v7.014z" fill="currentColor"/></svg><svg fill="none" viewBox="0 0 18 18" id="icon-square-check" xmlns="http://www.w3.org/2000/svg"><path d="M7.425 12.947l7.196-7.196-.796-.796-6.4 6.399-3.206-3.207-.797.797 4.003 4.002zM0 18V0h18v18H0z" fill="#D6AE7B"/></svg><svg fill="none" viewBox="0 0 42 42" id="icon-tg" xmlns="http://www.w3.org/2000/svg"><circle opacity=".25" cx="21" cy="21" r="20.5" stroke="currentColor"/><path fill-rule="evenodd" clip-rule="evenodd" d="M21 10c-6.075 0-11 4.925-11 11s4.925 11 11 11 11-4.925 11-11-4.925-11-11-11zm5.099 7.48c-.166 1.74-.882 5.961-1.246 7.91-.155.824-.459 1.1-.752 1.127-.639.06-1.124-.422-1.743-.828-.968-.634-1.515-1.03-2.455-1.648-1.086-.716-.382-1.11.237-1.752.162-.169 2.977-2.729 3.031-2.96.007-.03.014-.138-.05-.196-.065-.057-.16-.037-.229-.021-.097.021-1.644 1.044-4.64 3.066-.439.302-.836.448-1.193.441-.392-.009-1.148-.222-1.71-.405-.688-.224-1.236-.342-1.188-.722.025-.198.297-.4.818-.608a521.865 521.865 0 016.415-2.763c3.055-1.27 3.69-1.492 4.104-1.5.518-.008.643.42.6.86z" fill="currentColor"/></svg><svg fill="none" viewBox="0 0 42 42" id="icon-whapp" xmlns="http://www.w3.org/2000/svg"><circle opacity=".25" cx="21" cy="21" r="20.5" stroke="currentColor"/><path d="M21.003 10h-.006C14.932 10 10 14.934 10 21c0 2.406.775 4.637 2.094 6.447l-1.37 4.087 4.227-1.352A10.905 10.905 0 0021.003 32C27.068 32 32 27.065 32 21s-4.932-11-10.997-11zm6.4 15.533c-.265.75-1.318 1.371-2.158 1.553-.575.122-1.326.22-3.853-.828-3.233-1.34-5.314-4.624-5.477-4.837-.155-.213-1.306-1.74-1.306-3.318 0-1.579.802-2.347 1.125-2.677.265-.271.704-.395 1.124-.395.137 0 .259.007.369.012.323.014.485.034.698.544.266.639.912 2.218.99 2.38.078.162.156.382.046.595-.103.22-.194.318-.356.505-.163.187-.317.33-.479.53-.148.175-.316.362-.129.685.187.317.833 1.371 1.785 2.218 1.228 1.093 2.223 1.442 2.58 1.591.265.11.58.084.775-.122.246-.266.55-.706.86-1.139.22-.31.497-.35.788-.24.297.104 1.869.88 2.192 1.042.323.162.536.239.615.375.077.136.077.776-.189 1.526z" fill="currentColor"/></svg></svg>